<mxfile host="app.diagrams.net" modified="2021-06-26T06:46:58.965Z" agent="5.0 (Macintosh; Intel Mac OS X 10_15_7) AppleWebKit/537.36 (KHTML, like Gecko) Chrome/86.0.4240.193 Safari/537.36" etag="dnnODEsbP1Atqmyjfius" version="14.8.1" type="github">
  <diagram id="g8yDf1LlmSy03tC4oHfC" name="Page-1">
    <mxGraphModel dx="1426" dy="771" grid="1" gridSize="10" guides="1" tooltips="1" connect="1" arrows="1" fold="1" page="1" pageScale="1" pageWidth="827" pageHeight="1169" math="0" shadow="0">
      <root>
        <mxCell id="0" />
        <mxCell id="1" parent="0" />
        <mxCell id="ZOsCdkFlzHHshA4QTWXB-1" value="" style="rounded=1;whiteSpace=wrap;html=1;fillColor=#ffe6cc;strokeColor=#d79b00;" vertex="1" parent="1">
          <mxGeometry x="100" y="210" width="220" height="80" as="geometry" />
        </mxCell>
        <mxCell id="ZOsCdkFlzHHshA4QTWXB-5" style="edgeStyle=orthogonalEdgeStyle;rounded=0;orthogonalLoop=1;jettySize=auto;html=1;exitX=0.5;exitY=1;exitDx=0;exitDy=0;" edge="1" parent="1" source="ZOsCdkFlzHHshA4QTWXB-2" target="ZOsCdkFlzHHshA4QTWXB-4">
          <mxGeometry relative="1" as="geometry" />
        </mxCell>
        <mxCell id="ZOsCdkFlzHHshA4QTWXB-2" value="agent" style="rounded=1;whiteSpace=wrap;html=1;fillColor=#fff2cc;strokeColor=#d6b656;" vertex="1" parent="1">
          <mxGeometry x="165" y="250" width="90" height="30" as="geometry" />
        </mxCell>
        <mxCell id="ZOsCdkFlzHHshA4QTWXB-3" value="应用程序" style="text;html=1;strokeColor=none;fillColor=none;align=center;verticalAlign=middle;whiteSpace=wrap;rounded=0;" vertex="1" parent="1">
          <mxGeometry x="180" y="220" width="60" height="20" as="geometry" />
        </mxCell>
        <mxCell id="ZOsCdkFlzHHshA4QTWXB-8" style="edgeStyle=orthogonalEdgeStyle;rounded=0;orthogonalLoop=1;jettySize=auto;html=1;exitX=0.5;exitY=1;exitDx=0;exitDy=0;entryX=0.5;entryY=0;entryDx=0;entryDy=0;" edge="1" parent="1" source="ZOsCdkFlzHHshA4QTWXB-4" target="ZOsCdkFlzHHshA4QTWXB-7">
          <mxGeometry relative="1" as="geometry" />
        </mxCell>
        <mxCell id="ZOsCdkFlzHHshA4QTWXB-4" value="日志" style="rounded=1;whiteSpace=wrap;html=1;fillColor=#dae8fc;strokeColor=#6c8ebf;" vertex="1" parent="1">
          <mxGeometry x="135" y="370" width="150" height="60" as="geometry" />
        </mxCell>
        <mxCell id="ZOsCdkFlzHHshA4QTWXB-6" value="每个dubbo接口执行时，入参会被序列化，然后打到日志中（非业务日志哈）" style="text;html=1;strokeColor=none;fillColor=none;align=center;verticalAlign=middle;whiteSpace=wrap;rounded=0;" vertex="1" parent="1">
          <mxGeometry x="220" y="310" width="210" height="40" as="geometry" />
        </mxCell>
        <mxCell id="ZOsCdkFlzHHshA4QTWXB-7" value="flume采集日志给链路平台，监控平台等提供数据" style="rounded=1;whiteSpace=wrap;html=1;fillColor=#d5e8d4;strokeColor=#82b366;" vertex="1" parent="1">
          <mxGeometry x="135" y="500" width="150" height="60" as="geometry" />
        </mxCell>
      </root>
    </mxGraphModel>
  </diagram>
</mxfile>
